<svg xmlns="http://www.w3.org/2000/svg" width="80" height="80" viewBox="0 0 80 80">
  <path id="linkedin" d="M28.563,47.47H44.37V56.2H44.6c2.2-4.253,7.584-8.727,15.611-8.727,16.692,0,19.779,11.187,19.779,25.74v29.645H63.5V76.575c0-6.264-.121-14.329-8.572-14.329-8.584,0-9.9,6.819-9.9,13.872v26.735H28.563V47.47ZM17.134,32.085c0,5.1-3.84,9.231-8.572,9.231S-.011,37.181-.011,32.085s3.841-9.231,8.573-9.231S17.134,26.989,17.134,32.085ZM-.011,47.47H17.134v55.384H-.011V47.47Z" transform="translate(0.011 -22.854)" fill="#18f1f1" fill-rule="evenodd"/>
</svg>
